inDegrees=yes
name=ik_S42_A08_T01
DataType=double
version=3
OpenSimVersion=4.3-2021-08-27-4bc7ad9
endheader
time	pelvis_tilt	pelvis_list	pelvis_rotation	pelvis_tx	pelvis_ty	pelvis_tz	hip_flexion_r	hip_adduction_r	hip_rotation_r	knee_angle_r	knee_angle_r_beta	ankle_angle_r	subtalar_angle_r	mtp_angle_r	hip_flexion_l	hip_adduction_l	hip_rotation_l	knee_angle_l	knee_angle_l_beta	ankle_angle_l	subtalar_angle_l	mtp_angle_l	lumbar_extension	lumbar_bending	lumbar_rotation	arm_flex_r	arm_add_r	arm_rot_r	elbow_flex_r	pro_sup_r	wrist_flex_r	wrist_dev_r	arm_flex_l	arm_add_l	arm_rot_l	elbow_flex_l	pro_sup_l	wrist_flex_l	wrist_dev_l
19.67999999999967	-9.109042181597241	-1.726939833924742	35.16622671970559	0	0.9399999999999999	0	42.68486023968546	-10.28040633166396	-10.25972226992241	55.31111570493331	0.9653610820026306	0	0	0	42.68486023968546	-10.28040633166396	-10.25972226992241	55.31111570493331	0.9653610820026306	0	0	0	-7.803302167541538	0.8667220954177042	-9.155506985939368	36.21809868537581	-5.836579646988045	9.536205433907771	56.44789513006663	121.6205063028587	0	0	71.40912453653631	-5.469072802362811	4.236207846087357	46.48270106783465	81.26127222488614	0	0
19.69999999999967	-9.132563958443987	-1.720656436479835	35.16387781265092	0	0.9399999999999999	0	42.67764385680594	-10.28331590089657	-10.26149250663861	55.31176617067025	0.9653724347714117	0	0	0	42.67764385680594	-10.28331590089657	-10.26149250663861	55.31176617067025	0.9653724347714117	0	0	0	-7.81700731685729	0.8754096697872942	-9.151251639092033	36.26148890454218	-5.819158233982916	9.497881990646897	56.38599846948672	121.6586817542969	0	0	71.40320317961294	-5.395685087186208	4.147015857732464	46.22362383301408	81.52430833421363	0	0
19.71999999999967	-9.139504100591664	-1.717245185854799	35.16691813672091	0	0.9399999999999999	0	42.67758404492295	-10.28331030342401	-10.26149991880051	55.31177184857663	0.9653725338695726	0	0	0	42.67758404492295	-10.28331030342401	-10.26149991880051	55.31177184857663	0.9653725338695726	0	0	0	-7.820838463978125	0.8826795908169339	-9.154178977543625	36.25603609569558	-5.785639094920708	9.50593103019664	56.39048523617409	121.654753848182	0	0	71.40474523948545	-5.390569153715123	4.129812462425309	46.18423701183745	81.53108696901134	0	0
19.73999999999967	-9.157627740806705	-1.715368499043508	35.16793745182122	0	0.9399999999999999	0	42.67141961440495	-10.28580554076984	-10.26301665857282	55.31232589379572	0.9653822037828506	0	0	0	42.67141961440495	-10.28580554076984	-10.26301665857282	55.31232589379572	0.9653822037828506	0	0	0	-7.833613102764256	0.8902845359310561	-9.176572298343178	36.28563704987022	-5.775014221041077	9.507395474483625	56.40054760842119	121.6479948304871	0	0	71.41345868817596	-5.358639653252746	4.019692092707564	45.81771012502649	81.88811619151289	0	0
19.75999999999967	-9.169644562042649	-1.711797382697896	35.18913068803619	0	0.9399999999999999	0	42.66153557675256	-10.28951527976353	-10.26535149521404	55.31322708079605	0.9653979324631827	0	0	0	42.66153557675256	-10.28951527976353	-10.26535149521404	55.31322708079605	0.9653979324631827	0	0	0	-7.839092766525797	0.888485585610609	-9.186623542542346	36.30722751848315	-5.765708145646934	9.450651816208273	56.33155758320593	121.7406515273295	0	0	71.40183395651752	-5.332523206163145	3.993268276837826	45.53462795325879	82.07327173547094	0	0
19.77999999999967	-9.18314676727827	-1.700510287087745	35.17544573403394	0	0.9399999999999999	0	42.65757082858767	-10.29091993073832	-10.26626296218029	55.31359093030024	0.9654042828350126	0	0	0	42.65757082858767	-10.29091993073832	-10.26626296218029	55.31359093030024	0.9654042828350126	0	0	0	-7.842706026772093	0.8995843170311653	-9.180776701728034	36.31892019552115	-5.788137436723011	9.4226190865653	56.38583703233985	121.6802899130456	0	0	71.37442800805501	-5.275709598618316	3.948851619428401	45.16537340363411	82.45058473142105	0	0
19.79999999999967	-9.193666480978152	-1.692791311712238	35.16250555025801	0	0.9399999999999999	0	42.65775970491115	-10.29084056796959	-10.26621587993476	55.31357352594019	0.9654039790716255	0	0	0	42.65775970491115	-10.29084056796959	-10.26621587993476	55.31357352594019	0.9654039790716255	0	0	0	-7.846838336558799	0.9112994639991466	-9.173091292439514	36.35875193505753	-5.79669389018041	9.421556025809039	56.38309385029013	121.6913773436656	0	0	71.28554041533179	-5.271364712862981	3.990435233283137	45.105856426221	82.46066617488736	0	0
19.81999999999967	-9.193371984409998	-1.693593389213068	35.13162685382733	0	0.9399999999999999	0	42.65906483942425	-10.29027441695363	-10.26588358105828	55.31345684937083	0.9654019426813302	0	0	0	42.65906483942425	-10.29027441695363	-10.26588358105828	55.31345684937083	0.9654019426813302	0	0	0	-7.84673303063637	0.9069249502333138	-9.136974121241172	36.3615485098588	-5.775740373659287	9.382563394385908	56.34405743887921	121.7218257035974	0	0	71.07923649069858	-5.231702033579699	4.284573294206685	45.25190430155819	82.21355186210793	0	0
19.83999999999967	-9.202896903315665	-1.696123511722312	35.11132815324171	0	0.9399999999999999	0	42.65899422559985	-10.29030119347543	-10.26590209743793	55.31346268672833	0.9654020445624381	0	0	0	42.65899422559985	-10.29030119347543	-10.26590209743793	55.31346268672833	0.9654020445624381	0	0	0	-7.855957762118998	0.910161219619074	-9.135763448702589	36.38394409140053	-5.762388969685201	9.408527798782869	56.34480574937255	121.7294939650608	0	0	71.03761560126846	-5.182729776872798	4.315625500388554	45.22757401531349	82.19959074430899	0	0
19.85999999999967	-9.200543020855072	-1.695134042627075	35.11936005826683	0	0.9399999999999999	0	42.65702208065184	-10.29101172145551	-10.26636364436913	55.31364202143827	0.9654051745435897	0	0	0	42.65702208065184	-10.29101172145551	-10.26636364436913	55.31364202143827	0.9654051745435897	0	0	0	-7.852746678434847	0.9062639188378896	-9.131903463754794	36.38943620838946	-5.771406917626026	9.371320643846586	56.31091854695866	121.7469442008365	0	0	71.06079169557877	-5.146966312862897	4.259501474116743	45.12715980631582	82.17688139615471	0	0
19.87999999999967	-9.201129282422636	-1.700348001185698	35.12932398660701	0	0.9399999999999999	0	42.65469396895868	-10.29194082085866	-10.26693538708472	55.31385047939918	0.9654088128213595	0	0	0	42.65469396895868	-10.29194082085866	-10.26693538708472	55.31385047939918	0.9654088128213595	0	0	0	-7.855573563272849	0.9004046643733759	-9.140319402712207	36.39841876249957	-5.767867444065802	9.374925850250589	56.30885408315544	121.7279875133662	0	0	71.07555375483439	-5.093344316034205	4.198323236508829	44.93465660899342	82.38552298529279	0	0
19.89999999999966	-9.200767269395776	-1.705382251909054	35.1406932631151	0	0.9399999999999999	0	42.65341130239	-10.29319537167956	-10.26749547873383	55.31393779755809	0.9654103368107293	0	0	0	42.65341130239	-10.29319537167956	-10.26749547873383	55.31393779755809	0.9654103368107293	0	0	0	-7.858112305409106	0.8957739926403592	-9.147264805274007	36.38735393462305	-5.749207803322687	9.33844121440044	56.29148856168143	121.7832229230699	0	-1.147986960762382e-49	71.08584252770591	-5.105750834325184	4.186935516856131	44.83690479722211	82.42820223988274	0	-1.147986960762382e-49
19.91999999999966	-9.185653804964735	-1.706442799479155	35.1605534149671	0	0.9399999999999999	0	42.65498794658772	-10.29367055337081	-10.26747786794585	55.31375354294227	0.9654071209610212	0	0	0	42.65498794658772	-10.29367055337081	-10.26747786794585	55.31375354294227	0.9654071209610212	0	0	0	-7.847076729876752	0.8902662300732416	-9.156696165745307	36.38175277826344	-5.744905630640995	9.34818758905738	56.28278062160626	121.7877097250271	0	0	71.0450978888081	-5.093740679196418	4.21578283550732	44.71501770879957	82.53328000418948	0	0
19.93999999999966	-9.17735544978326	-1.703722984241695	35.17787154996796	0	0.9399999999999999	0	42.6537515306289	-10.29386978381955	-10.26768806294823	55.31387463145748	0.965409234354298	0	0	0	42.6537515306289	-10.29386978381955	-10.26768806294823	55.31387463145748	0.965409234354298	0	0	0	-7.838468977624864	0.886616614592068	-9.161527431629494	36.40229617996721	-5.740693366582184	9.371213470410565	56.25444799053584	121.7996162970433	0	5.38806921148701e-36	71.00736261549301	-5.09130241024984	4.210932187596871	44.64907433559304	82.57871977670629	0	5.38806921148701e-36
19.95999999999966	-9.165995708502011	-1.694994433944306	35.19971649927107	0	0.9399999999999999	0	42.65220232854219	-10.29466489234515	-10.26812852457446	55.31400642301897	0.9654115345509724	0	0	0	42.65220232854219	-10.29466489234515	-10.26812852457446	55.31400642301897	0.9654115345509724	0	0	0	-7.82422091004535	0.8878283127003129	-9.177831961009334	36.38826015346248	-5.738718040136011	9.390340894803415	56.20412759849	121.7902823047083	0	0	70.97539779510191	-5.080984632837344	4.221774497560709	44.51211480482564	82.74064404293573	0	0
19.97999999999966	-9.155746561995786	-1.684932403991175	35.19239548481502	0	0.9399999999999999	0	42.65498559366294	-10.29375934485461	-10.2675223083251	55.31374575375837	0.9654069850141161	0	0	0	42.65498559366294	-10.29375934485461	-10.2675223083251	55.31374575375837	0.9654069850141161	0	0	0	-7.810684219902504	0.8928118176299557	-9.16904115719278	36.39615309743142	-5.744561046916992	9.42794433696367	56.18829747150838	121.7627125552766	0	0	70.91979316265662	-5.066239689712494	4.281808356868597	44.47178275017988	82.81909273411901	0	0
